<svg xmlns="http://www.w3.org/2000/svg" width="800" height="600" viewBox="0 0 800 600">
  <defs>
    <linearGradient id="bg" x1="0" x2="1" y1="0" y2="1">
      <stop offset="0%" stop-color="#f5f6fb"/>
      <stop offset="100%" stop-color="#e2c48d"/>
    </linearGradient>
  </defs>
  <rect width="800" height="600" rx="40" fill="url(#bg)"/>
  <ellipse cx="400" cy="470" rx="210" ry="30" fill="#c9ceda"/>
  <path d="M210 330c48-10 74-41 138-52 66-12 112 0 157 15 62 21 80 69 85 94 4 18-8 34-27 34H245c-29 0-49-28-35-52z" fill="#fff" stroke="#d3d7e0" stroke-width="8"/>
  <path d="M485 286c22 15 53 27 85 30" stroke="#d4a24e" stroke-width="18" stroke-linecap="round"/>
  <path d="M312 301c24 13 58 21 92 21" stroke="#dfe4ed" stroke-width="8" stroke-linecap="round"/>
  <path d="M278 335c30 14 72 21 121 21" stroke="#dfe4ed" stroke-width="8" stroke-linecap="round"/>
  <text x="400" y="110" text-anchor="middle" font-family="Arial, sans-serif" font-size="42" font-weight="700" fill="#10131a">ShoesLab</text>
  <text x="400" y="160" text-anchor="middle" font-family="Arial, sans-serif" font-size="24" fill="#4f5868">Default product preview</text>
</svg>
